<?xml version="1.0" encoding="utf-8"?>
<!-- Generator: Adobe Illustrator 19.0.0, SVG Export Plug-In . SVG Version: 6.00 Build 0)  -->
<svg version="1.1" id="Calque_1" xmlns="http://www.w3.org/2000/svg" xmlns:xlink="http://www.w3.org/1999/xlink" x="0px" y="0px"
	 viewBox="0 0 1125.9 299.3" style="enable-background:new 0 0 1125.9 299.3;" xml:space="preserve">
<style type="text/css">
	.st0{display:none;fill:#2B9193;}
	.st1{fill:#2B9193;}
	.st2{display:none;}
	.st3{display:inline;fill:#2B9193;}
</style>
<path id="XMLID_77_" class="st0" d="M599.7,334.8l-70.3,0c-11.4,0-20.7-9.3-20.7-20.7l0-42.5c0-0.1-0.1-0.2-0.2-0.2l-11.5,0
	c-0.1,0-0.2,0.1-0.2,0.2l0,42.5c0,11.4-9.3,20.7-20.7,20.6l-72.3,0c-3.3,0-6,2.7-6,6v0c0,3.3,2.7,6,6,6l72.2,0
	c11.5,0,20.8,9.3,20.7,20.8l0,42.8c0,3.3,2.7,6,6,6l0,0c3.3,0,6-2.7,6-6l0-42.8c0-11.5,9.3-20.7,20.8-20.7l70.3,0c3.3,0,6-2.7,6-6v0
	C605.7,337.5,603,334.8,599.7,334.8z"/>
<g id="XMLID_11_">
	<ellipse id="XMLID_2_" class="st1" cx="121.2" cy="263.8" rx="35.5" ry="35.5"/>
	<ellipse id="XMLID_4_" class="st1" cx="121.2" cy="48.8" rx="48.8" ry="48.8"/>
	<circle id="XMLID_5_" class="st1" cx="228.8" cy="159.9" r="28.4"/>
	<path id="XMLID_3_" class="st1" d="M38.1,158.2c0.9,11.8-8.8,21.5-20.6,20.6c-9.3-0.7-16.7-8.2-17.5-17.5
		c-0.9-11.8,8.8-21.5,20.6-20.6C29.9,141.5,37.4,149,38.1,158.2z"/>
	<path id="XMLID_7_" class="st1" d="M197.3,159.9c0-2.1,0.2-4.1,0.6-6.1h-50c-11.4,0-20.7-9.3-20.7-20.7l0-32.7c-2,0.2-4,0.4-6,0.4
		c-2,0-4-0.1-6-0.4v32.8c0,11.4-9.3,20.7-20.7,20.6H40.6c0.4,1.4,0.6,2.7,0.8,4.2c0.2,2.7-0.1,5.3-0.7,7.8h53.8
		c11.5,0,20.8,9.3,20.7,20.8l0,39.1c2-0.3,4-0.5,6-0.5c2,0,4,0.2,6,0.5l0-39.1c0-11.5,9.3-20.7,20.8-20.7h50
		C197.5,163.9,197.3,161.9,197.3,159.9z"/>
</g>
<g id="XMLID_12_" class="st2">
	<ellipse id="XMLID_17_" class="st3" cx="121.2" cy="263.8" rx="35.5" ry="35.5"/>
	<ellipse id="XMLID_16_" class="st3" cx="121.2" cy="48.8" rx="48.8" ry="48.8"/>
	<circle id="XMLID_15_" class="st3" cx="228.8" cy="159.9" r="28.4"/>
	<path id="XMLID_14_" class="st3" d="M38.1,158.2c0.9,11.8-8.8,21.5-20.6,20.6c-9.3-0.7-16.7-8.2-17.5-17.5
		c-0.9-11.8,8.8-21.5,20.6-20.6C29.9,141.5,37.4,149,38.1,158.2z"/>
	<path id="XMLID_13_" class="st3" d="M197.3,159.9c0-2.1,0.2-4.1,0.6-6.1h-50c-11.4,0-20.7-9.3-20.7-20.7l0-32.7c-2,0.2-4,0.4-6,0.4
		c-2,0-4-0.1-6-0.4v32.8c0,11.4-9.3,20.7-20.7,20.6H40.6c0.4,1.4,0.6,2.7,0.8,4.2c0.2,2.7-0.1,5.3-0.7,7.8h53.8
		c11.5,0,20.8,9.3,20.7,20.8l0,39.1c2-0.3,4-0.5,6-0.5c2,0,4,0.2,6,0.5l0-39.1c0-11.5,9.3-20.7,20.8-20.7h50
		C197.5,163.9,197.3,161.9,197.3,159.9z"/>
</g>
<g id="XMLID_125_">
	<g id="XMLID_209_">
		<path id="XMLID_210_" class="st1" d="M218,279.9l-9.7-27.6h3.9l7.4,22.7l0.3,1.3l0.3-1.2l7.4-22.7h3.8l-9.6,27.6H218z"/>
		<path id="XMLID_212_" class="st1" d="M246.9,267.8c0.1-0.7,0-1.4-0.2-2.1c-0.2-0.6-0.5-1.2-0.8-1.7c-0.4-0.5-0.8-0.9-1.3-1.1
			c-0.5-0.3-1.1-0.4-1.7-0.4c-1.6,0-2.9,0.6-3.9,1.9c-1,1.3-1.5,3.1-1.5,5.4c0,1.1,0.2,2.2,0.5,3.1c0.3,0.9,0.7,1.7,1.3,2.4
			c0.5,0.7,1.2,1.2,1.9,1.6c0.7,0.4,1.5,0.6,2.4,0.6c0.9,0,1.7-0.1,2.5-0.3c0.8-0.2,1.7-0.5,2.8-1.1l1,2.5c-1.2,0.6-2.4,1.1-3.5,1.3
			c-1.1,0.2-2.2,0.3-3.1,0.3c-1.4,0-2.7-0.3-3.8-0.8c-1.1-0.5-2.1-1.2-2.9-2.2c-0.8-0.9-1.4-2-1.8-3.3c-0.4-1.3-0.6-2.6-0.6-4.1
			c0-1.5,0.2-2.9,0.6-4.2c0.4-1.2,1.1-2.3,1.9-3.2c0.8-0.9,1.8-1.5,2.9-2c1.1-0.5,2.4-0.7,3.9-0.7c1.3,0,2.4,0.3,3.5,0.9
			c1,0.6,1.8,1.4,2.4,2.3c0.6,1,1,2.1,1.1,3.4c0.1,1.3,0,2.6-0.4,4h-11c0.3-0.7,0.7-1.3,1.1-1.8c0.5-0.5,1.2-0.7,2.1-0.7H246.9z"/>
		<path id="XMLID_214_" class="st1" d="M255.6,279.9v-28.8h3.5v28.8H255.6z M267.9,265.6c0-0.9-0.2-1.6-0.5-2.2
			c-0.3-0.6-0.9-0.8-1.6-0.8c-0.3,0-0.6,0-0.7,0.1c-0.2,0.1-0.5,0.1-0.8,0.2c-0.7,0.2-1.4,0.2-2,0c-0.6-0.2-1.2-0.5-1.7-1.1
			c1.3-0.8,2.5-1.3,3.3-1.6c0.9-0.3,1.7-0.4,2.4-0.4c0.7,0,1.4,0.1,2.1,0.3c0.6,0.2,1.2,0.5,1.7,1c0.5,0.5,0.9,1.1,1.1,1.9
			c0.3,0.8,0.4,1.8,0.4,2.9v13.9h-3.6V265.6z"/>
		<path id="XMLID_217_" class="st1" d="M277.1,254.6c0-0.7,0.2-1.2,0.6-1.6c0.4-0.4,1-0.7,1.6-0.7s1.2,0.2,1.6,0.7
			c0.4,0.4,0.6,1,0.6,1.6s-0.2,1.2-0.6,1.6c-0.4,0.4-1,0.6-1.6,0.6s-1.2-0.2-1.6-0.6C277.4,255.8,277.1,255.2,277.1,254.6z
			 M277.6,279.9v-19.6h3.6v19.6H277.6z"/>
		<path id="XMLID_220_" class="st1" d="M295,280.3c-1.3,0-2.5-0.2-3.6-0.7c-1.1-0.4-2.1-1.1-2.9-2c-0.8-0.9-1.5-1.9-2-3.2
			c-0.5-1.3-0.7-2.7-0.7-4.4s0.2-3.1,0.7-4.4s1.2-2.3,2-3.2c0.8-0.9,1.8-1.5,2.9-2c1.1-0.4,2.3-0.7,3.5-0.7c0.7,0,1.4,0.1,2.3,0.2
			c0.8,0.1,1.6,0.3,2.4,0.6l-0.9,2.5c-0.7-0.2-1.4-0.3-2-0.4c-0.6-0.1-1.2-0.1-1.8-0.1c-0.7,0-1.4,0.2-2.1,0.5s-1.2,0.8-1.7,1.4
			c-0.5,0.6-0.9,1.4-1.2,2.3c-0.3,0.9-0.4,2-0.4,3.3c0,1.3,0.1,2.4,0.4,3.3c0.3,0.9,0.7,1.7,1.2,2.3c0.5,0.6,1.1,1.1,1.7,1.4
			c0.6,0.3,1.3,0.5,2.1,0.5c0.6,0,1.2-0.1,1.8-0.2c0.7-0.2,1.4-0.5,2.3-0.9l0.9,2.5c-1,0.5-2,0.9-2.9,1
			C296.4,280.2,295.6,280.3,295,280.3z"/>
		<path id="XMLID_222_" class="st1" d="M307.2,279.9h-3.5v-28.8h3.5V279.9z"/>
		<path id="XMLID_224_" class="st1" d="M325.2,267.8c0.1-0.7,0-1.4-0.2-2.1c-0.2-0.6-0.5-1.2-0.8-1.7c-0.4-0.5-0.8-0.9-1.3-1.1
			c-0.5-0.3-1.1-0.4-1.7-0.4c-1.6,0-2.9,0.6-3.9,1.9c-1,1.3-1.5,3.1-1.5,5.4c0,1.1,0.2,2.2,0.5,3.1c0.3,0.9,0.7,1.7,1.3,2.4
			c0.5,0.7,1.2,1.2,1.9,1.6c0.7,0.4,1.5,0.6,2.4,0.6c0.9,0,1.7-0.1,2.5-0.3c0.8-0.2,1.7-0.5,2.8-1.1l1,2.5c-1.2,0.6-2.4,1.1-3.5,1.3
			c-1.1,0.2-2.2,0.3-3.1,0.3c-1.4,0-2.7-0.3-3.8-0.8c-1.1-0.5-2.1-1.2-2.9-2.2c-0.8-0.9-1.4-2-1.8-3.3c-0.4-1.3-0.6-2.6-0.6-4.1
			c0-1.5,0.2-2.9,0.6-4.2c0.4-1.2,1.1-2.3,1.9-3.2c0.8-0.9,1.8-1.5,2.9-2c1.1-0.5,2.4-0.7,3.9-0.7c1.3,0,2.4,0.3,3.5,0.9
			c1,0.6,1.8,1.4,2.4,2.3c0.6,1,1,2.1,1.1,3.4c0.1,1.3,0,2.6-0.4,4h-11c0.3-0.7,0.7-1.3,1.1-1.8c0.5-0.5,1.2-0.7,2.1-0.7H325.2z"/>
		<path id="XMLID_226_" class="st1" d="M361.8,260c0,1.5-0.4,2.9-1.3,4c-0.8,1.2-1.9,2.1-3.2,2.7l-0.9,0.3l0.8,0.3
			c0.9,0.6,1.7,1.4,2.1,2.3c0.5,0.9,0.9,1.9,1.3,3c0.3,1.1,0.7,2.3,1,3.5c0.3,1.2,0.8,2.5,1.3,3.8h-3.8c-0.5-1.1-0.9-2.3-1.2-3.5
			c-0.3-1.2-0.6-2.4-1-3.6c-0.4-1.1-0.8-2.2-1.3-3c-0.5-0.9-1.3-1.5-2.3-1.9c-0.1,0-0.2,0-0.3,0c-0.6,0.1-1.2,0.1-1.8,0
			s-1.3-0.1-2-0.3c0.3-0.7,0.7-1.2,1.3-1.6c0.6-0.4,1.3-0.7,2.1-0.7c0.7,0,1.3-0.2,2-0.5c0.7-0.3,1.2-0.7,1.8-1.1
			c0.5-0.5,0.9-1,1.3-1.7c0.3-0.7,0.5-1.4,0.5-2.2c0-0.8-0.2-1.5-0.5-2.1c-0.3-0.6-0.8-1.2-1.3-1.7c-0.6-0.5-1.2-0.9-2-1.1
			c-0.7-0.3-1.6-0.4-2.4-0.4c-0.7,0-1.4,0-1.9,0c-0.6,0-1.3,0.1-2.2,0.3v25H344v-27.2c1.4-0.3,2.7-0.5,3.9-0.6
			c1.2-0.2,2.5-0.2,3.9-0.2c1.5,0,2.9,0.2,4.1,0.6c1.2,0.4,2.3,1,3.2,1.8s1.5,1.6,2,2.6C361.6,257.8,361.8,258.8,361.8,260
			L361.8,260z"/>
		<path id="XMLID_228_" class="st1" d="M366.7,270.1c0-1.7,0.3-3.3,0.8-4.5c0.5-1.3,1.2-2.3,2.1-3.2c0.9-0.8,1.8-1.5,2.9-1.9
			s2.2-0.6,3.3-0.6c1.4,0,2.7,0.3,3.9,0.8c1.1,0.5,2.1,1.3,2.9,2.2c0.8,0.9,1.4,2,1.8,3.2c0.4,1.2,0.6,2.6,0.6,4
			c0,1.6-0.2,3.1-0.7,4.4c-0.5,1.3-1.2,2.4-2,3.2c-0.8,0.9-1.8,1.5-2.9,2c-1.1,0.4-2.3,0.7-3.5,0.7c-1.3,0-2.5-0.2-3.6-0.7
			c-1.1-0.4-2.1-1.1-2.9-2c-0.8-0.9-1.5-1.9-2-3.2C367,273.2,366.7,271.7,366.7,270.1z M370.5,270.1c0,1.1,0.1,2.1,0.4,3
			c0.2,0.9,0.6,1.7,1,2.4c0.5,0.7,1,1.2,1.7,1.5c0.7,0.4,1.4,0.6,2.3,0.6c0.9,0,1.7-0.2,2.4-0.6c0.7-0.4,1.2-0.9,1.7-1.6
			c0.4-0.7,0.8-1.5,1-2.4c0.2-0.9,0.3-1.9,0.3-2.9c0-1.3-0.1-2.4-0.4-3.3c-0.3-0.9-0.7-1.7-1.2-2.3c-0.5-0.6-1.1-1.1-1.7-1.4
			c-0.7-0.3-1.3-0.5-2.1-0.5c-0.7,0-1.4,0.2-2.1,0.5s-1.2,0.8-1.7,1.4c-0.5,0.6-0.9,1.4-1.2,2.3
			C370.6,267.7,370.5,268.8,370.5,270.1z"/>
		<path id="XMLID_231_" class="st1" d="M393,274.5c0,0.9,0.2,1.6,0.6,2.2c0.4,0.6,1,0.8,1.8,0.8c0.3,0,0.6,0,0.8-0.1
			c0.2-0.1,0.5-0.1,0.9-0.2c0.7-0.2,1.4-0.2,2.1,0c0.6,0.2,1.2,0.5,1.7,1.1c-1.3,0.8-2.5,1.3-3.4,1.6c-0.9,0.3-1.7,0.4-2.4,0.4
			c-0.8,0-1.5-0.1-2.1-0.3c-0.7-0.2-1.2-0.5-1.7-1c-0.5-0.5-0.9-1.1-1.2-1.9c-0.3-0.8-0.4-1.8-0.4-2.9v-13.9h3.6V274.5z
			 M403.3,279.9c-0.6-0.7-1-1.4-1.2-2c-0.2-0.7-0.3-1.4-0.3-2.1v-15.5h3.5v14.9c0,0.7,0,1.5,0.1,2.3c0.1,0.8,0.2,1.6,0.5,2.5H403.3z
			"/>
		<path id="XMLID_234_" class="st1" d="M412.9,262.9h-3.5v-1.7l3.5-0.9v-5l3.3-1.1v18.9c0,1.3,0.3,2.4,0.8,3.3
			c0.6,0.9,1.3,1.3,2.2,1.3c0.5,0,1,0,1.4-0.1s1-0.2,1.7-0.4l0.8,2.4c-1,0.3-1.7,0.6-2.2,0.7c-0.5,0.1-1.1,0.2-1.7,0.2
			c-2.1,0-3.7-0.7-4.8-2s-1.7-3.2-1.7-5.7V262.9z M420.8,262.9c-0.9,0-1.6-0.3-2.1-0.8c-0.5-0.5-0.9-1.1-1.1-1.9h5.4v2.6H420.8z"/>
		<path id="XMLID_237_" class="st1" d="M427.8,254.6c0-0.7,0.2-1.2,0.6-1.6c0.4-0.4,1-0.7,1.6-0.7s1.2,0.2,1.6,0.7
			c0.4,0.4,0.6,1,0.6,1.6s-0.2,1.2-0.6,1.6c-0.4,0.4-1,0.6-1.6,0.6s-1.2-0.2-1.6-0.6C428,255.8,427.8,255.2,427.8,254.6z
			 M428.3,279.9v-19.6h3.6v19.6H428.3z"/>
		<path id="XMLID_240_" class="st1" d="M440.3,260.2c0.6,0.7,1,1.4,1.2,2c0.2,0.7,0.3,1.4,0.3,2.1v15.5h-3.6V265
			c0-0.7,0-1.5-0.1-2.3c-0.1-0.8-0.2-1.6-0.4-2.5H440.3z M450.6,265.6c0-0.9-0.2-1.6-0.6-2.2c-0.4-0.6-1-0.8-1.8-0.8
			c-0.3,0-0.6,0-0.8,0.1c-0.2,0.1-0.5,0.1-0.8,0.2c-0.7,0.2-1.4,0.2-2.1,0c-0.6-0.2-1.2-0.5-1.7-1.1c1.3-0.8,2.5-1.3,3.4-1.6
			c0.9-0.3,1.7-0.4,2.4-0.4c0.8,0,1.5,0.1,2.2,0.3c0.7,0.2,1.3,0.5,1.8,1c0.5,0.5,0.9,1.1,1.2,1.9c0.3,0.8,0.5,1.8,0.5,2.9v13.9
			h-3.6V265.6z"/>
		<path id="XMLID_243_" class="st1" d="M459.6,270.2c0-1.5,0.2-3,0.7-4.2c0.5-1.3,1.2-2.3,2.1-3.2c0.9-0.9,2-1.6,3.2-2.1
			c1.2-0.5,2.6-0.7,4-0.7c1.1,0,2.1,0.1,3.2,0.3c1.1,0.2,2.2,0.5,3.6,0.9v18.8c0,1.4-0.2,2.7-0.6,3.9s-1,2.2-1.8,3s-1.7,1.5-2.8,1.9
			s-2.3,0.7-3.7,0.7c-1,0-2.1-0.1-3.2-0.3c-1.2-0.2-2.4-0.6-3.6-1.3l1-2.6c1.1,0.5,2.1,0.9,3,1.1c0.9,0.2,1.8,0.3,2.6,0.3
			c0.8,0,1.5-0.1,2.2-0.4c0.7-0.3,1.3-0.6,1.9-1.2c0.5-0.5,1-1.2,1.3-2c0.3-0.8,0.5-1.7,0.5-2.8V263c-0.6-0.2-1.1-0.3-1.6-0.3
			c-0.5-0.1-1-0.1-1.6-0.1c-1.9,0-3.4,0.6-4.6,1.9c-1.2,1.3-1.7,3.2-1.7,5.6c0,1.1,0.1,2.1,0.3,3s0.5,1.7,1,2.4
			c0.4,0.6,1,1.1,1.6,1.5c0.6,0.3,1.4,0.4,2.3,0.3c0.6-0.1,1.1,0,1.6,0.2c0.5,0.2,1,0.6,1.5,1.2c-0.6,0.4-1.3,0.8-1.9,1
			c-0.7,0.2-1.3,0.4-1.9,0.4c-1.1,0.1-2.2-0.1-3.2-0.5c-1-0.4-1.9-1.1-2.6-2c-0.8-0.9-1.4-2-1.8-3.2S459.6,271.7,459.6,270.2z"/>
		<path id="XMLID_245_" class="st1" d="M490.8,266.1c0-2.4,0.4-4.5,1.2-6.3c0.8-1.8,1.8-3.3,3-4.5c1.2-1.2,2.6-2.1,4.1-2.7
			s3-0.9,4.5-0.9c2.1,0,3.9,0.4,5.5,1.1c1.6,0.8,2.9,1.8,4,3.1c1.1,1.3,1.9,2.8,2.5,4.6c0.6,1.7,0.8,3.6,0.8,5.5
			c0,2.2-0.3,4.2-1,5.9c-0.7,1.8-1.6,3.3-2.8,4.5c-1.2,1.3-2.5,2.2-4.1,2.9c-1.5,0.7-3.2,1-4.9,1c-1.8,0-3.4-0.3-5-1
			c-1.6-0.7-2.9-1.6-4.1-2.8c-1.2-1.2-2.1-2.7-2.7-4.5C491.1,270.3,490.8,268.3,490.8,266.1z M494.6,266.1c0,1.7,0.2,3.3,0.7,4.7
			c0.4,1.4,1.1,2.6,1.9,3.7c0.8,1,1.7,1.8,2.8,2.4c1.1,0.6,2.3,0.9,3.6,0.9c1.3,0,2.6-0.3,3.7-0.9c1.1-0.6,2-1.4,2.8-2.5
			c0.8-1,1.4-2.3,1.8-3.7c0.4-1.4,0.6-2.9,0.6-4.6c0-1.8-0.2-3.4-0.7-4.8s-1.1-2.7-1.9-3.7c-0.8-1-1.8-1.8-2.9-2.3s-2.2-0.8-3.5-0.8
			c-1.2,0-2.4,0.3-3.5,0.8s-2,1.3-2.8,2.3c-0.8,1-1.5,2.2-1.9,3.7S494.6,264.3,494.6,266.1z"/>
		<path id="XMLID_248_" class="st1" d="M539.9,270.2c0,1.5-0.2,2.9-0.7,4.1c-0.5,1.2-1.1,2.3-2,3.1s-1.7,1.5-2.8,2
			c-1.1,0.5-2.2,0.7-3.3,0.7c-0.6,0-1.2,0-1.8-0.1c-0.6-0.1-1.3-0.3-2-0.5c0.4-0.6,0.8-1.1,1.4-1.5c0.6-0.4,1.3-0.6,2.2-0.6
			c0.7,0,1.3-0.1,1.9-0.4c0.6-0.3,1.2-0.7,1.7-1.3c0.5-0.6,0.9-1.3,1.2-2.3c0.3-0.9,0.5-2,0.5-3.3c0-1.1-0.1-2.1-0.3-3
			c-0.2-0.9-0.5-1.7-1-2.4c-0.4-0.7-1-1.2-1.6-1.6c-0.6-0.4-1.4-0.6-2.2-0.6c-0.9,0-1.7,0.2-2.5,0.7c-0.8,0.4-1.6,1.1-2.4,2.1v23.7
			h-3.5v-22.3c0-1.5-0.1-2.8-0.2-3.9c-0.1-1.1-0.3-1.9-0.4-2.6h2.5c0.3,0.3,0.6,0.6,0.8,0.9c0.2,0.3,0.4,0.7,0.6,1.2l0.1,0.6
			l0.3-0.7c0.8-0.9,1.7-1.5,2.7-1.8c1-0.3,1.9-0.5,2.7-0.5c1.3,0,2.5,0.3,3.5,0.8c1,0.5,1.9,1.3,2.6,2.2c0.7,0.9,1.2,2,1.6,3.3
			C539.7,267.4,539.9,268.7,539.9,270.2z"/>
		<path id="XMLID_250_" class="st1" d="M556.9,267.8c0.1-0.7,0-1.4-0.2-2.1c-0.2-0.6-0.4-1.2-0.8-1.7c-0.4-0.5-0.8-0.9-1.3-1.1
			c-0.5-0.3-1.1-0.4-1.7-0.4c-1.6,0-2.9,0.6-3.9,1.9c-1,1.3-1.5,3.1-1.5,5.4c0,1.1,0.2,2.2,0.5,3.1c0.3,0.9,0.7,1.7,1.3,2.4
			s1.2,1.2,1.9,1.6c0.7,0.4,1.5,0.6,2.4,0.6c0.9,0,1.7-0.1,2.5-0.3c0.8-0.2,1.7-0.5,2.8-1.1l0.9,2.5c-1.2,0.6-2.4,1.1-3.5,1.3
			c-1.1,0.2-2.2,0.3-3.1,0.3c-1.4,0-2.7-0.3-3.8-0.8c-1.1-0.5-2.1-1.2-2.9-2.2c-0.8-0.9-1.4-2-1.8-3.3c-0.4-1.3-0.6-2.6-0.6-4.1
			c0-1.5,0.2-2.9,0.6-4.2c0.4-1.2,1.1-2.3,1.9-3.2s1.8-1.5,2.9-2c1.1-0.5,2.4-0.7,3.9-0.7c1.3,0,2.4,0.3,3.5,0.9
			c1,0.6,1.8,1.4,2.4,2.3c0.6,1,1,2.1,1.1,3.4c0.1,1.3,0,2.6-0.4,4h-11c0.3-0.7,0.7-1.3,1.1-1.8c0.5-0.5,1.2-0.7,2.1-0.7H556.9z"/>
		<path id="XMLID_252_" class="st1" d="M567.9,260.2c0.6,0.7,1,1.4,1.2,2c0.2,0.7,0.3,1.4,0.3,2.1v15.5h-3.6V265
			c0-0.7,0-1.5-0.1-2.3s-0.2-1.6-0.4-2.5H567.9z M578.2,265.6c0-0.9-0.2-1.6-0.6-2.2c-0.4-0.6-1-0.8-1.8-0.8c-0.3,0-0.6,0-0.8,0.1
			c-0.2,0.1-0.5,0.1-0.8,0.2c-0.7,0.2-1.4,0.2-2.1,0c-0.6-0.2-1.2-0.5-1.7-1.1c1.3-0.8,2.5-1.3,3.4-1.6c0.9-0.3,1.7-0.4,2.4-0.4
			c0.8,0,1.5,0.1,2.2,0.3c0.7,0.2,1.3,0.5,1.8,1c0.5,0.5,0.9,1.1,1.2,1.9c0.3,0.8,0.5,1.8,0.5,2.9v13.9h-3.6V265.6z"/>
		<path id="XMLID_255_" class="st1" d="M586.9,269.5v-2.4h11.5v2.4H586.9z"/>
		<path id="XMLID_257_" class="st1" d="M601.7,276.2c1,0.5,1.9,0.8,2.9,1c1,0.2,1.9,0.3,2.7,0.3c1.1,0,2-0.3,2.5-0.8
			c0.6-0.5,0.8-1.2,0.8-2.1c0-0.7-0.2-1.3-0.7-1.7c-0.5-0.5-1-0.9-1.7-1.2c-0.7-0.4-1.4-0.7-2.2-1.1c-0.8-0.4-1.5-0.8-2.2-1.3
			c-0.7-0.5-1.3-1.1-1.7-1.8s-0.7-1.6-0.7-2.6c0-0.6,0.1-1.2,0.4-1.8c0.3-0.6,0.7-1.2,1.2-1.6c0.5-0.5,1.1-0.9,1.9-1.2
			c0.8-0.3,1.6-0.5,2.6-0.5c0.7,0,1.5,0.1,2.4,0.2c0.9,0.1,1.8,0.4,2.9,0.8l-0.9,2.5c-0.8-0.3-1.6-0.5-2.2-0.6
			c-0.7-0.1-1.3-0.2-1.8-0.2c-0.9,0-1.6,0.2-2.2,0.6s-0.9,1-0.9,1.8c0,0.7,0.2,1.2,0.7,1.7c0.5,0.4,1,0.8,1.7,1.2
			c0.7,0.4,1.4,0.7,2.2,1.1c0.8,0.4,1.5,0.8,2.2,1.3c0.7,0.5,1.3,1.1,1.7,1.8c0.5,0.7,0.7,1.6,0.7,2.7c0,0.7-0.2,1.4-0.5,2.1
			c-0.3,0.6-0.8,1.2-1.4,1.7c-0.6,0.5-1.3,0.9-2,1.2s-1.6,0.4-2.4,0.4c-1,0-2-0.1-3.1-0.2c-1.1-0.2-2.4-0.6-3.9-1.3L601.7,276.2z"/>
		<path id="XMLID_259_" class="st1" d="M616.7,270.1c0-1.7,0.3-3.3,0.8-4.5c0.5-1.3,1.2-2.3,2.1-3.2c0.9-0.8,1.8-1.5,2.9-1.9
			c1.1-0.4,2.2-0.6,3.3-0.6c1.4,0,2.7,0.3,3.9,0.8c1.1,0.5,2.1,1.3,2.9,2.2c0.8,0.9,1.4,2,1.8,3.2s0.6,2.6,0.6,4
			c0,1.6-0.2,3.1-0.7,4.4s-1.2,2.4-2,3.2c-0.8,0.9-1.8,1.5-2.9,2c-1.1,0.4-2.3,0.7-3.5,0.7c-1.3,0-2.5-0.2-3.6-0.7
			c-1.1-0.4-2.1-1.1-2.9-2c-0.8-0.9-1.5-1.9-2-3.2C617,273.2,616.7,271.7,616.7,270.1z M620.5,270.1c0,1.1,0.1,2.1,0.4,3
			c0.2,0.9,0.6,1.7,1,2.4c0.5,0.7,1,1.2,1.7,1.5c0.7,0.4,1.4,0.6,2.3,0.6c0.9,0,1.7-0.2,2.4-0.6c0.7-0.4,1.2-0.9,1.7-1.6
			c0.4-0.7,0.8-1.5,1-2.4c0.2-0.9,0.3-1.9,0.3-2.9c0-1.3-0.1-2.4-0.4-3.3c-0.3-0.9-0.7-1.7-1.2-2.3c-0.5-0.6-1.1-1.1-1.7-1.4
			c-0.7-0.3-1.3-0.5-2.1-0.5c-0.7,0-1.4,0.2-2.1,0.5c-0.6,0.3-1.2,0.8-1.7,1.4c-0.5,0.6-0.9,1.4-1.2,2.3
			C620.6,267.7,620.5,268.8,620.5,270.1z"/>
		<path id="XMLID_262_" class="st1" d="M643,274.5c0,0.9,0.2,1.6,0.6,2.2c0.4,0.6,1,0.8,1.8,0.8c0.3,0,0.6,0,0.8-0.1
			c0.2-0.1,0.5-0.1,0.9-0.2c0.7-0.2,1.4-0.2,2.1,0c0.6,0.2,1.2,0.5,1.7,1.1c-1.3,0.8-2.5,1.3-3.4,1.6c-0.9,0.3-1.7,0.4-2.4,0.4
			c-0.8,0-1.5-0.1-2.1-0.3c-0.7-0.2-1.2-0.5-1.7-1c-0.5-0.5-0.9-1.1-1.2-1.9c-0.3-0.8-0.4-1.8-0.4-2.9v-13.9h3.6V274.5z
			 M653.3,279.9c-0.6-0.7-1-1.4-1.2-2c-0.2-0.7-0.3-1.4-0.3-2.1v-15.5h3.5v14.9c0,0.7,0,1.5,0.1,2.3c0.1,0.8,0.2,1.6,0.5,2.5H653.3z
			"/>
		<path id="XMLID_265_" class="st1" d="M664.4,260.2c0.4,0.4,0.7,0.9,0.9,1.4s0.3,1,0.4,1.7v0.7l0.3-0.7c0.5-1,1.2-1.8,2.1-2.4
			c0.9-0.6,1.9-0.9,2.9-0.9c0.5,0,1.1,0.1,1.9,0.3l-0.5,3c-0.4-0.1-0.8-0.2-1-0.2c-0.3,0-0.6,0-0.8,0c-0.6,0-1.2,0.1-1.7,0.4
			s-1.1,0.6-1.6,1.1s-0.8,1.2-1.1,2c-0.3,0.8-0.4,1.8-0.4,2.9v10.5h-3.4v-13c0-1.2-0.1-2.3-0.2-3.5c-0.1-1.2-0.3-2.2-0.5-3.1H664.4z
			"/>
		<path id="XMLID_267_" class="st1" d="M684.6,280.3c-1.3,0-2.5-0.2-3.6-0.7c-1.1-0.4-2.1-1.1-2.9-2c-0.8-0.9-1.5-1.9-2-3.2
			c-0.5-1.3-0.7-2.7-0.7-4.4s0.2-3.1,0.7-4.4s1.2-2.3,2-3.2c0.8-0.9,1.8-1.5,2.9-2c1.1-0.4,2.3-0.7,3.5-0.7c0.7,0,1.4,0.1,2.3,0.2
			s1.6,0.3,2.4,0.6l-0.9,2.5c-0.7-0.2-1.4-0.3-2-0.4c-0.6-0.1-1.2-0.1-1.8-0.1c-0.7,0-1.4,0.2-2.1,0.5c-0.6,0.3-1.2,0.8-1.7,1.4
			c-0.5,0.6-0.9,1.4-1.2,2.3c-0.3,0.9-0.4,2-0.4,3.3c0,1.3,0.1,2.4,0.4,3.3c0.3,0.9,0.7,1.7,1.2,2.3c0.5,0.6,1.1,1.1,1.7,1.4
			c0.6,0.3,1.3,0.5,2.1,0.5c0.6,0,1.2-0.1,1.8-0.2s1.5-0.5,2.3-0.9l1,2.5c-1,0.5-2,0.9-2.9,1C686,280.2,685.2,280.3,684.6,280.3z"/>
		<path id="XMLID_269_" class="st1" d="M705.2,267.8c0.1-0.7,0-1.4-0.2-2.1c-0.2-0.6-0.4-1.2-0.8-1.7c-0.4-0.5-0.8-0.9-1.3-1.1
			c-0.5-0.3-1.1-0.4-1.7-0.4c-1.6,0-2.9,0.6-3.9,1.9c-1,1.3-1.5,3.1-1.5,5.4c0,1.1,0.2,2.2,0.5,3.1c0.3,0.9,0.7,1.7,1.3,2.4
			s1.2,1.2,1.9,1.6c0.7,0.4,1.5,0.6,2.4,0.6c0.9,0,1.7-0.1,2.5-0.3c0.8-0.2,1.7-0.5,2.8-1.1l0.9,2.5c-1.2,0.6-2.4,1.1-3.5,1.3
			c-1.1,0.2-2.2,0.3-3.1,0.3c-1.4,0-2.7-0.3-3.8-0.8c-1.1-0.5-2.1-1.2-2.9-2.2c-0.8-0.9-1.4-2-1.8-3.3c-0.4-1.3-0.6-2.6-0.6-4.1
			c0-1.5,0.2-2.9,0.6-4.2c0.4-1.2,1.1-2.3,1.9-3.2s1.8-1.5,2.9-2c1.1-0.5,2.4-0.7,3.9-0.7c1.3,0,2.4,0.3,3.5,0.9
			c1,0.6,1.8,1.4,2.4,2.3c0.6,1,1,2.1,1.1,3.4c0.1,1.3,0,2.6-0.4,4h-11c0.3-0.7,0.7-1.3,1.1-1.8c0.5-0.5,1.2-0.7,2.1-0.7H705.2z"/>
		<path id="XMLID_271_" class="st1" d="M722.3,266.1c0-2.4,0.4-4.5,1.2-6.3c0.8-1.8,1.8-3.3,3-4.5c1.2-1.2,2.6-2.1,4.1-2.7
			s3-0.9,4.5-0.9c2.1,0,3.9,0.4,5.5,1.1c1.6,0.8,2.9,1.8,4,3.1c1.1,1.3,1.9,2.8,2.5,4.6c0.6,1.7,0.8,3.6,0.8,5.5
			c0,2.2-0.3,4.2-1,5.9c-0.7,1.8-1.6,3.3-2.8,4.5c-1.2,1.3-2.5,2.2-4.1,2.9c-1.5,0.7-3.2,1-4.9,1c-1.8,0-3.4-0.3-5-1
			c-1.6-0.7-2.9-1.6-4.1-2.8c-1.2-1.2-2.1-2.7-2.7-4.5C722.6,270.3,722.3,268.3,722.3,266.1z M726.1,266.1c0,1.7,0.2,3.3,0.7,4.7
			c0.4,1.4,1.1,2.6,1.9,3.7c0.8,1,1.7,1.8,2.8,2.4c1.1,0.6,2.3,0.9,3.6,0.9c1.3,0,2.6-0.3,3.7-0.9c1.1-0.6,2-1.4,2.8-2.5
			c0.8-1,1.4-2.3,1.8-3.7c0.4-1.4,0.6-2.9,0.6-4.6c0-1.8-0.2-3.4-0.7-4.8s-1.1-2.7-1.9-3.7c-0.8-1-1.8-1.8-2.9-2.3s-2.2-0.8-3.5-0.8
			c-1.2,0-2.4,0.3-3.5,0.8s-2,1.3-2.8,2.3c-0.8,1-1.5,2.2-1.9,3.7S726.1,264.3,726.1,266.1z"/>
		<path id="XMLID_274_" class="st1" d="M771.4,270.2c0,1.5-0.2,2.9-0.7,4.1c-0.5,1.2-1.1,2.3-2,3.1s-1.7,1.5-2.8,2
			c-1.1,0.5-2.2,0.7-3.3,0.7c-0.6,0-1.2,0-1.8-0.1c-0.6-0.1-1.3-0.3-2-0.5c0.4-0.6,0.8-1.1,1.4-1.5c0.6-0.4,1.3-0.6,2.2-0.6
			c0.7,0,1.3-0.1,1.9-0.4c0.6-0.3,1.2-0.7,1.7-1.3c0.5-0.6,0.9-1.3,1.2-2.3c0.3-0.9,0.5-2,0.5-3.3c0-1.1-0.1-2.1-0.3-3
			c-0.2-0.9-0.5-1.7-1-2.4c-0.4-0.7-1-1.2-1.6-1.6c-0.6-0.4-1.4-0.6-2.2-0.6c-0.9,0-1.7,0.2-2.5,0.7c-0.8,0.4-1.6,1.1-2.4,2.1v23.7
			H754v-22.3c0-1.5-0.1-2.8-0.2-3.9c-0.1-1.1-0.3-1.9-0.4-2.6h2.5c0.3,0.3,0.6,0.6,0.8,0.9c0.2,0.3,0.4,0.7,0.6,1.2l0.1,0.6l0.3-0.7
			c0.8-0.9,1.7-1.5,2.7-1.8c1-0.3,1.9-0.5,2.7-0.5c1.3,0,2.5,0.3,3.5,0.8c1,0.5,1.9,1.3,2.6,2.2c0.7,0.9,1.2,2,1.6,3.3
			C771.2,267.4,771.4,268.7,771.4,270.2z"/>
		<path id="XMLID_276_" class="st1" d="M777.2,262.9h-3.5v-1.7l3.5-0.9v-5l3.3-1.1v18.9c0,1.3,0.3,2.4,0.8,3.3s1.3,1.3,2.2,1.3
			c0.5,0,1,0,1.4-0.1s1-0.2,1.7-0.4l0.8,2.4c-1,0.3-1.7,0.6-2.2,0.7s-1.1,0.2-1.7,0.2c-2.1,0-3.7-0.7-4.8-2
			c-1.1-1.3-1.7-3.2-1.7-5.7V262.9z M785.1,262.9c-0.9,0-1.6-0.3-2.1-0.8c-0.5-0.5-0.9-1.1-1.1-1.9h5.4v2.6H785.1z"/>
		<path id="XMLID_279_" class="st1" d="M792.1,254.6c0-0.7,0.2-1.2,0.6-1.6c0.4-0.4,1-0.7,1.6-0.7c0.7,0,1.2,0.2,1.6,0.7
			c0.4,0.4,0.6,1,0.6,1.6s-0.2,1.2-0.6,1.6c-0.4,0.4-1,0.6-1.6,0.6c-0.7,0-1.2-0.2-1.6-0.6C792.3,255.8,792.1,255.2,792.1,254.6z
			 M792.6,279.9v-19.6h3.6v19.6H792.6z"/>
		<path id="XMLID_282_" class="st1" d="M804.6,260.2c0.6,0.7,1,1.4,1.2,2c0.2,0.7,0.3,1.4,0.3,2.1v15.5h-3.6V265
			c0-0.7,0-1.5-0.1-2.3s-0.2-1.6-0.4-2.5H804.6z M814.7,265.6c0-0.9-0.2-1.6-0.6-2.2c-0.4-0.6-0.9-0.8-1.7-0.8c-0.3,0-0.6,0-0.8,0.1
			c-0.2,0.1-0.5,0.1-0.8,0.2c-0.7,0.2-1.4,0.2-2,0c-0.6-0.2-1.2-0.5-1.7-1.1c1.3-0.8,2.5-1.3,3.4-1.6s1.7-0.4,2.4-0.4
			c0.7,0,1.4,0.1,2.1,0.3c0.7,0.2,1.2,0.5,1.7,1c0.5,0.5,0.9,1.1,1.2,1.9s0.4,1.8,0.4,2.9v13.9h-3.6V265.6z M826.9,265.6
			c0-0.9-0.2-1.6-0.6-2.2c-0.4-0.6-1-0.8-1.8-0.8c-0.3,0-0.6,0-0.8,0.1c-0.3,0.1-0.6,0.1-0.9,0.2c-0.7,0.2-1.4,0.2-2.1,0
			c-0.6-0.2-1.2-0.5-1.7-1.1c1.4-0.8,2.5-1.3,3.5-1.6c0.9-0.3,1.8-0.4,2.5-0.4c0.8,0,1.5,0.1,2.1,0.3c0.7,0.2,1.3,0.5,1.8,1
			c0.5,0.5,0.9,1.1,1.2,1.9c0.3,0.8,0.5,1.8,0.5,2.9v13.9h-3.6V265.6z"/>
		<path id="XMLID_286_" class="st1" d="M836.1,254.6c0-0.7,0.2-1.2,0.6-1.6c0.4-0.4,1-0.7,1.6-0.7c0.7,0,1.2,0.2,1.6,0.7
			c0.4,0.4,0.6,1,0.6,1.6s-0.2,1.2-0.6,1.6c-0.4,0.4-1,0.6-1.6,0.6c-0.7,0-1.2-0.2-1.6-0.6C836.3,255.8,836.1,255.2,836.1,254.6z
			 M836.6,279.9v-19.6h3.6v19.6H836.6z"/>
		<path id="XMLID_289_" class="st1" d="M845.8,260.2h13.3v1.4l-9.8,15.1l-0.6,0.6l0.9-0.1h9.8v2.6h-14.8v-1.4l9.9-15.2l0.6-0.6
			l-0.8,0.1h-8.4V260.2z"/>
		<path id="XMLID_291_" class="st1" d="M877.5,273.4c0,1.5,0.1,2.8,0.2,3.9c0.1,1.1,0.3,1.9,0.4,2.6h-2.6c-0.4-0.2-0.6-0.5-0.8-0.8
			c-0.2-0.3-0.4-0.7-0.5-1.1l0-0.7l-0.4,0.7c-1,1-1.9,1.6-2.7,1.9c-0.8,0.3-1.7,0.4-2.6,0.4c-1,0-1.9-0.1-2.7-0.4s-1.5-0.7-2-1.1
			c-0.6-0.5-1-1.1-1.3-1.7s-0.4-1.4-0.4-2.1c0-1,0.2-1.8,0.6-2.5c0.4-0.7,1-1.3,1.8-1.8s1.9-0.9,3.2-1.3s3-0.6,4.9-0.9
			c-0.1,0.2-0.1,0.5-0.2,0.8c-0.1,0.3-0.2,0.6-0.5,0.9c-0.2,0.3-0.5,0.6-0.8,0.8c-0.3,0.2-0.7,0.4-1.3,0.5c-0.8,0.1-1.5,0.3-2,0.5
			c-0.5,0.2-0.9,0.5-1.2,0.8c-0.3,0.3-0.5,0.6-0.6,1c-0.1,0.3-0.2,0.7-0.2,1c0,0.8,0.3,1.5,0.8,2s1.3,0.9,2.3,0.9
			c0.9,0,1.7-0.2,2.6-0.6c0.9-0.4,1.7-1.1,2.4-2.1v-7.1c0-1.5-0.4-2.7-1.1-3.7c-0.7-1-2-1.4-3.7-1.4c-0.7,0-1.4,0.1-2,0.2
			c-0.7,0.1-1.5,0.4-2.4,0.7l-0.9-2.4c1.2-0.5,2.3-0.9,3.3-1c0.9-0.2,1.8-0.2,2.7-0.2c2.5,0,4.4,0.7,5.7,2.1s2,3.4,2,6V273.4z"/>
		<path id="XMLID_293_" class="st1" d="M884.2,262.9h-3.5v-1.7l3.5-0.9v-5l3.3-1.1v18.9c0,1.3,0.3,2.4,0.8,3.3s1.3,1.3,2.2,1.3
			c0.5,0,1,0,1.4-0.1s1-0.2,1.7-0.4l0.8,2.4c-1,0.3-1.7,0.6-2.2,0.7s-1.1,0.2-1.7,0.2c-2.1,0-3.7-0.7-4.8-2
			c-1.1-1.3-1.7-3.2-1.7-5.7V262.9z M892.1,262.9c-0.9,0-1.6-0.3-2.1-0.8c-0.5-0.5-0.9-1.1-1.1-1.9h5.4v2.6H892.1z"/>
		<path id="XMLID_296_" class="st1" d="M899.1,254.6c0-0.7,0.2-1.2,0.6-1.6c0.4-0.4,1-0.7,1.6-0.7c0.7,0,1.2,0.2,1.6,0.7
			c0.4,0.4,0.6,1,0.6,1.6s-0.2,1.2-0.6,1.6c-0.4,0.4-1,0.6-1.6,0.6c-0.7,0-1.2-0.2-1.6-0.6C899.3,255.8,899.1,255.2,899.1,254.6z
			 M899.5,279.9v-19.6h3.6v19.6H899.5z"/>
		<path id="XMLID_299_" class="st1" d="M907.7,270.1c0-1.7,0.3-3.3,0.8-4.5c0.5-1.3,1.2-2.3,2.1-3.2c0.9-0.8,1.8-1.5,2.9-1.9
			c1.1-0.4,2.2-0.6,3.3-0.6c1.4,0,2.7,0.3,3.9,0.8c1.1,0.5,2.1,1.3,2.9,2.2c0.8,0.9,1.4,2,1.8,3.2s0.6,2.6,0.6,4
			c0,1.6-0.2,3.1-0.7,4.4s-1.2,2.4-2,3.2c-0.8,0.9-1.8,1.5-2.9,2c-1.1,0.4-2.3,0.7-3.5,0.7c-1.3,0-2.5-0.2-3.6-0.7
			c-1.1-0.4-2.1-1.1-2.9-2c-0.8-0.9-1.5-1.9-2-3.2C908,273.2,907.7,271.7,907.7,270.1z M911.5,270.1c0,1.1,0.1,2.1,0.4,3
			c0.2,0.9,0.6,1.7,1,2.4c0.5,0.7,1,1.2,1.7,1.5c0.7,0.4,1.4,0.6,2.3,0.6c0.9,0,1.7-0.2,2.4-0.6c0.7-0.4,1.2-0.9,1.7-1.6
			c0.4-0.7,0.8-1.5,1-2.4c0.2-0.9,0.3-1.9,0.3-2.9c0-1.3-0.1-2.4-0.4-3.3c-0.3-0.9-0.7-1.7-1.2-2.3c-0.5-0.6-1.1-1.1-1.7-1.4
			c-0.7-0.3-1.3-0.5-2.1-0.5c-0.7,0-1.4,0.2-2.1,0.5c-0.6,0.3-1.2,0.8-1.7,1.4c-0.5,0.6-0.9,1.4-1.2,2.3
			C911.6,267.7,911.5,268.8,911.5,270.1z"/>
		<path id="XMLID_302_" class="st1" d="M933.1,260.2c0.6,0.7,1,1.4,1.2,2c0.2,0.7,0.3,1.4,0.3,2.1v15.5H931V265c0-0.7,0-1.5-0.1-2.3
			s-0.2-1.6-0.4-2.5H933.1z M943.4,265.6c0-0.9-0.2-1.6-0.6-2.2c-0.4-0.6-1-0.8-1.8-0.8c-0.3,0-0.6,0-0.8,0.1
			c-0.2,0.1-0.5,0.1-0.8,0.2c-0.7,0.2-1.4,0.2-2.1,0c-0.6-0.2-1.2-0.5-1.7-1.1c1.3-0.8,2.5-1.3,3.4-1.6c0.9-0.3,1.7-0.4,2.4-0.4
			c0.8,0,1.5,0.1,2.2,0.3c0.7,0.2,1.3,0.5,1.8,1c0.5,0.5,0.9,1.1,1.2,1.9c0.3,0.8,0.5,1.8,0.5,2.9v13.9h-3.6V265.6z"/>
		<path id="XMLID_305_" class="st1" d="M965.8,252.3h4.7l7.4,22.2l0.3,1.2l0.3-1.2l7.4-22.2h4.7l3,27.6h-3.5l-2.2-22.1l-0.1-1.6
			l-0.5,1.6l-7.5,21.7h-3.4l-7.6-21.8l-0.5-1.6l-0.1,1.6l-2.1,22.2h-3.4L965.8,252.3z"/>
		<path id="XMLID_307_" class="st1" d="M1013.4,273.4c0,1.5,0.1,2.8,0.2,3.9c0.1,1.1,0.3,1.9,0.4,2.6h-2.6c-0.4-0.2-0.6-0.5-0.8-0.8
			c-0.2-0.3-0.4-0.7-0.5-1.1l0-0.7l-0.4,0.7c-1,1-1.9,1.6-2.7,1.9c-0.8,0.3-1.7,0.4-2.6,0.4c-1,0-1.9-0.1-2.7-0.4s-1.5-0.7-2-1.1
			c-0.6-0.5-1-1.1-1.3-1.7s-0.4-1.4-0.4-2.1c0-1,0.2-1.8,0.6-2.5c0.4-0.7,1-1.3,1.8-1.8s1.9-0.9,3.2-1.3s3-0.6,4.9-0.9
			c-0.1,0.2-0.1,0.5-0.2,0.8c-0.1,0.3-0.2,0.6-0.5,0.9c-0.2,0.3-0.5,0.6-0.8,0.8c-0.3,0.2-0.7,0.4-1.3,0.5c-0.8,0.1-1.5,0.3-2,0.5
			c-0.5,0.2-0.9,0.5-1.2,0.8c-0.3,0.3-0.5,0.6-0.6,1c-0.1,0.3-0.2,0.7-0.2,1c0,0.8,0.3,1.5,0.8,2s1.3,0.9,2.3,0.9
			c0.9,0,1.7-0.2,2.6-0.6c0.9-0.4,1.7-1.1,2.4-2.1v-7.1c0-1.5-0.4-2.7-1.1-3.7c-0.7-1-2-1.4-3.7-1.4c-0.7,0-1.4,0.1-2,0.2
			c-0.7,0.1-1.5,0.4-2.4,0.7l-0.9-2.4c1.2-0.5,2.3-0.9,3.3-1c0.9-0.2,1.8-0.2,2.7-0.2c2.5,0,4.4,0.7,5.7,2.1s2,3.4,2,6V273.4z"/>
		<path id="XMLID_309_" class="st1" d="M1027,280.3c-1.3,0-2.5-0.2-3.6-0.7c-1.1-0.4-2.1-1.1-2.9-2c-0.8-0.9-1.5-1.9-2-3.2
			c-0.5-1.3-0.7-2.7-0.7-4.4s0.2-3.1,0.7-4.4s1.2-2.3,2-3.2c0.8-0.9,1.8-1.5,2.9-2c1.1-0.4,2.3-0.7,3.5-0.7c0.7,0,1.4,0.1,2.3,0.2
			s1.6,0.3,2.4,0.6l-0.9,2.5c-0.7-0.2-1.4-0.3-2-0.4c-0.6-0.1-1.2-0.1-1.8-0.1c-0.7,0-1.4,0.2-2.1,0.5c-0.6,0.3-1.2,0.8-1.7,1.4
			c-0.5,0.6-0.9,1.4-1.2,2.3c-0.3,0.9-0.4,2-0.4,3.3c0,1.3,0.1,2.4,0.4,3.3c0.3,0.9,0.7,1.7,1.2,2.3c0.5,0.6,1.1,1.1,1.7,1.4
			c0.6,0.3,1.3,0.5,2.1,0.5c0.6,0,1.2-0.1,1.8-0.2s1.5-0.5,2.3-0.9l1,2.5c-1,0.5-2,0.9-2.9,1C1028.3,280.2,1027.6,280.3,1027,280.3z
			"/>
		<path id="XMLID_311_" class="st1" d="M1035.6,279.9v-28.8h3.5v28.8H1035.6z M1047.9,265.6c0-0.9-0.2-1.6-0.5-2.2
			c-0.3-0.6-0.9-0.8-1.6-0.8c-0.3,0-0.6,0-0.7,0.1c-0.2,0.1-0.5,0.1-0.8,0.2c-0.7,0.2-1.4,0.2-2,0c-0.6-0.2-1.2-0.5-1.7-1.1
			c1.3-0.8,2.5-1.3,3.3-1.6c0.9-0.3,1.7-0.4,2.4-0.4c0.7,0,1.4,0.1,2.1,0.3c0.6,0.2,1.2,0.5,1.7,1c0.5,0.5,0.9,1.1,1.1,1.9
			c0.3,0.8,0.4,1.8,0.4,2.9v13.9h-3.6V265.6z"/>
		<path id="XMLID_314_" class="st1" d="M1057.1,254.6c0-0.7,0.2-1.2,0.6-1.6c0.4-0.4,1-0.7,1.6-0.7c0.7,0,1.2,0.2,1.6,0.7
			c0.4,0.4,0.6,1,0.6,1.6s-0.2,1.2-0.6,1.6c-0.4,0.4-1,0.6-1.6,0.6c-0.7,0-1.2-0.2-1.6-0.6C1057.4,255.8,1057.1,255.2,1057.1,254.6z
			 M1057.6,279.9v-19.6h3.6v19.6H1057.6z"/>
		<path id="XMLID_317_" class="st1" d="M1069.7,260.2c0.6,0.7,1,1.4,1.2,2c0.2,0.7,0.3,1.4,0.3,2.1v15.5h-3.6V265
			c0-0.7,0-1.5-0.1-2.3s-0.2-1.6-0.4-2.5H1069.7z M1080,265.6c0-0.9-0.2-1.6-0.6-2.2c-0.4-0.6-1-0.8-1.8-0.8c-0.3,0-0.6,0-0.8,0.1
			c-0.2,0.1-0.5,0.1-0.8,0.2c-0.7,0.2-1.4,0.2-2.1,0c-0.6-0.2-1.2-0.5-1.7-1.1c1.3-0.8,2.5-1.3,3.4-1.6c0.9-0.3,1.7-0.4,2.4-0.4
			c0.8,0,1.5,0.1,2.2,0.3c0.7,0.2,1.3,0.5,1.8,1c0.5,0.5,0.9,1.1,1.2,1.9c0.3,0.8,0.5,1.8,0.5,2.9v13.9h-3.6V265.6z"/>
		<path id="XMLID_320_" class="st1" d="M1102,267.8c0.1-0.7,0-1.4-0.2-2.1c-0.2-0.6-0.4-1.2-0.8-1.7c-0.4-0.5-0.8-0.9-1.3-1.1
			c-0.5-0.3-1.1-0.4-1.7-0.4c-1.6,0-2.9,0.6-3.9,1.9c-1,1.3-1.5,3.1-1.5,5.4c0,1.1,0.2,2.2,0.5,3.1c0.3,0.9,0.7,1.7,1.3,2.4
			s1.2,1.2,1.9,1.6c0.7,0.4,1.5,0.6,2.4,0.6c0.9,0,1.7-0.1,2.5-0.3c0.8-0.2,1.7-0.5,2.8-1.1l0.9,2.5c-1.2,0.6-2.4,1.1-3.5,1.3
			c-1.1,0.2-2.2,0.3-3.1,0.3c-1.4,0-2.7-0.3-3.8-0.8c-1.1-0.5-2.1-1.2-2.9-2.2c-0.8-0.9-1.4-2-1.8-3.3c-0.4-1.3-0.6-2.6-0.6-4.1
			c0-1.5,0.2-2.9,0.6-4.2c0.4-1.2,1.1-2.3,1.9-3.2s1.8-1.5,2.9-2c1.1-0.5,2.4-0.7,3.9-0.7c1.3,0,2.4,0.3,3.5,0.9
			c1,0.6,1.8,1.4,2.4,2.3c0.6,1,1,2.1,1.1,3.4c0.1,1.3,0,2.6-0.4,4h-11c0.3-0.7,0.7-1.3,1.1-1.8c0.5-0.5,1.2-0.7,2.1-0.7H1102z"/>
	</g>
	<g id="XMLID_194_">
		<path id="XMLID_195_" class="st1" d="M329.3,243.9L260.4,47.6h41l46.2,149l1.9,10.3l1.9-10l46.2-149.3h39.7L369,243.9H329.3z"/>
		<path id="XMLID_197_" class="st1" d="M480.5,104.3c1.4,1.3,3,3.7,4.7,7.4c1.7,3.7,2.9,7.9,3.6,12.6l0.5,6.5l2.7-6.5
			c3.6-7.2,8.3-12.8,14.2-16.7c5.8-4,11.7-5.9,17.4-5.9c5.2,0,11.1,1.1,17.5,3.2l-4.3,30.5c-3.6-1.1-6.6-1.8-9-2.2
			c-2.4-0.4-4.7-0.5-6.9-0.5c-4.7,0-8.8,1.2-12.4,3.5c-3.6,2.3-6.7,5.5-9.2,9.6c-2.5,4-4.5,8.9-5.8,14.6c-1.3,5.7-2,11.8-2,18.5
			v65.1h-35.4V138.3c0-5-0.3-10.4-0.9-16.1c-0.6-5.7-1.8-11.7-3.4-18H480.5z"/>
		<path id="XMLID_199_" class="st1" d="M697.8,173.9c0,11.5-2.1,21.8-6.3,30.9c-4.2,9.1-9.7,16.8-16.5,23.1
			c-6.8,6.3-14.5,11.1-23.2,14.4c-8.7,3.3-17.5,5-26.3,5c-9.5,0-18.7-1.6-27.4-4.9c-8.7-3.2-16.4-8-23.1-14.2
			c-6.7-6.2-12-13.9-15.9-23.1c-4-9.2-5.9-19.6-5.9-31.3c0-12.6,2.3-23.5,6.9-32.8c4.6-9.3,10.4-16.9,17.5-22.8
			c7.1-5.9,14.9-10.3,23.5-13.2c8.5-2.9,16.7-4.3,24.4-4.3c10.8,0,20.6,1.8,29.4,5.4c8.8,3.6,16.4,8.6,22.8,15.1
			c6.4,6.5,11.3,14.2,14.8,23.1S697.8,163.1,697.8,173.9z M625.5,219.6c5.2,0,9.9-1.2,13.9-3.6c4-2.4,7.4-5.7,10.1-9.8
			c2.7-4.1,4.7-8.9,6.1-14.5c1.4-5.5,2-11.5,2-17.7c0-6.3-0.7-12.1-2-17.6c-1.3-5.5-3.4-10.2-6.1-14.4c-2.7-4.1-6.1-7.4-10.1-9.8
			c-4.1-2.4-8.7-3.6-13.9-3.6c-5.2,0-9.9,1.2-13.9,3.6c-4,2.4-7.4,5.7-10.1,9.8c-2.7,4.1-4.8,8.9-6.2,14.4
			c-1.4,5.5-2.2,11.3-2.2,17.6c0,6.8,0.8,13,2.3,18.5c1.5,5.5,3.7,10.3,6.5,14.4c2.8,4,6.2,7.2,10.3,9.4
			C616.1,218.5,620.6,219.6,625.5,219.6z"/>
		<path id="XMLID_202_" class="st1" d="M862.5,173.9c0,11.5-2.1,21.8-6.3,30.9c-4.2,9.1-9.7,16.8-16.5,23.1
			c-6.8,6.3-14.5,11.1-23.2,14.4c-8.7,3.3-17.5,5-26.3,5c-9.5,0-18.7-1.6-27.4-4.9c-8.7-3.2-16.4-8-23.1-14.2
			c-6.7-6.2-12-13.9-15.9-23.1c-4-9.2-5.9-19.6-5.9-31.3c0-12.6,2.3-23.5,6.9-32.8c4.6-9.3,10.4-16.9,17.5-22.8
			c7.1-5.9,14.9-10.3,23.5-13.2c8.5-2.9,16.7-4.3,24.4-4.3c10.8,0,20.6,1.8,29.4,5.4c8.8,3.6,16.4,8.6,22.8,15.1
			c6.4,6.5,11.3,14.2,14.8,23.1S862.5,163.1,862.5,173.9z M790.2,219.6c5.2,0,9.9-1.2,13.9-3.6c4-2.4,7.4-5.7,10.1-9.8
			c2.7-4.1,4.7-8.9,6.1-14.5c1.4-5.5,2-11.5,2-17.7c0-6.3-0.7-12.1-2-17.6c-1.3-5.5-3.4-10.2-6.1-14.4c-2.7-4.1-6.1-7.4-10.1-9.8
			c-4.1-2.4-8.7-3.6-13.9-3.6c-5.2,0-9.9,1.2-13.9,3.6c-4,2.4-7.4,5.7-10.1,9.8c-2.7,4.1-4.8,8.9-6.2,14.4
			c-1.4,5.5-2.2,11.3-2.2,17.6c0,6.8,0.8,13,2.3,18.5c1.5,5.5,3.7,10.3,6.5,14.4c2.8,4,6.2,7.2,10.3,9.4
			C780.8,218.5,785.3,219.6,790.2,219.6z"/>
		<path id="XMLID_205_" class="st1" d="M920.8,104.3c4.3,4.9,7.2,9.7,8.5,14.4c1.3,4.8,2,9.9,2,15.3v109.9h-37.8V138.3
			c0-5-0.3-10.4-0.9-16.1c-0.6-5.7-1.7-11.7-3.1-18H920.8z M979.7,144.8c0-4.5-0.8-8.2-2.4-11.1c-1.6-2.9-4.8-4.3-9.5-4.3
			c-1.6,0-3.2,0.2-4.9,0.5c-1.6,0.4-3.5,0.6-5.7,0.8c-2.2,0.2-4.2-0.2-6.1-1.2c-1.9-1-3.6-2.4-5.3-4.2c-1.6-1.8-3.2-3.8-4.6-6.1
			c-1.4-2.2-2.8-4.6-4-7.2c9.7-4,17.9-6.8,24.4-8.6c6.6-1.8,13-2.7,19.3-2.7c4.7,0,9.2,0.9,13.6,2.7c4.4,1.8,8.3,4.5,11.6,8.1
			c3.3,3.6,6,8.1,8.1,13.5c2.1,5.4,3.1,11.8,3.1,19.2v99.6h-37.8V144.8z M1065.8,144.8c0-4.5-1-8.2-3-11.1c-2-2.9-5.5-4.3-10.5-4.3
			c-1.6,0-3.4,0.2-5.3,0.7c-1.9,0.5-4,0.8-6.3,0.9c-2.2,0.2-4.2-0.2-6.2-1.2c-2-1-3.8-2.4-5.5-4.2c-1.7-1.8-3.3-3.8-4.7-6.1
			c-1.4-2.2-2.8-4.6-4-7.2c9.9-4.1,18.3-7.1,25.1-8.9c6.8-1.8,13.4-2.7,19.7-2.7c4.7,0,9.4,0.9,14,2.7c4.6,1.8,8.7,4.5,12.4,8.1
			c3.6,3.6,6.6,8.1,8.8,13.5c2.3,5.4,3.4,11.8,3.4,19.2v99.6h-37.8V144.8z"/>
	</g>
</g>
</svg>
